
<svg xmlns="http://www.w3.org/2000/svg" viewBox="0 0 512 512">
  <path d="M428.8,279.467v-48l-48-9.6c-3.2-11.733-7.467-22.4-12.8-32l26.667-40.533L360.533,115.2L320,141.867 c-9.6-5.333-20.267-10.667-32-12.8l-9.6-48h-48l-9.6,48c-11.733,3.2-22.4,7.467-32,12.8L148.267,115.2l-34.133,34.133l26.667,40.533 c-5.333,9.6-10.667,20.267-12.8,32l-48,9.6v48l48,9.6c3.2,11.733,7.467,22.4,12.8,32L114.133,361.6l34.133,34.133l40.533-26.667 c9.6,5.333,20.267,10.667,32,12.8l9.6,48h48l9.6-48c11.733-3.2,22.4-7.467,32-12.8l40.533,26.667l34.133-34.133L368,321.067 c5.333-9.6,10.667-20.267,12.8-32L428.8,279.467z M256,292.267c-20.267,0-36.267-16-36.267-36.267s16-36.267,36.267-36.267 s36.267,16,36.267,36.267S276.267,292.267,256,292.267z"/>
  <path d="M256,182.4c-40.533,0-73.6,33.067-73.6,73.6s33.067,73.6,73.6,73.6s73.6-33.067,73.6-73.6 S296.533,182.4,256,182.4z M256,292.267c-20.267,0-36.267-16-36.267-36.267s16-36.267,36.267-36.267s36.267,16,36.267,36.267 S276.267,292.267,256,292.267z"/>
  <path fill="blue" d="M492.8,181.333C452.267,51.2,311.467-22.4,181.333,19.2l9.6,29.867 c114.133-35.2,235.733,27.733,272,141.867l-19.2,6.4l46.933,30.933L512,176L492.8,181.333z"/>
  <path fill="red" d="M19.2,330.667C60.8,460.8,200.533,534.4,330.667,492.8l-9.6-29.867 c-114.133,35.2-235.733-27.733-272-141.867l19.2-6.4L21.333,284.8L0,337.067L19.2,330.667z"/>
</svg>
