<svg width="65" height="45" viewBox="0 0 242 167" xmlns="http://www.w3.org/2000/svg">
  <path class="header__logo-icon--letter" fill="#ffffff" stroke="#000000" d="M6.51001 6.85001L80.84 159.73L106.68 118.49" stroke-width="13" stroke-miterlimit="10" stroke-linecap="round" stroke-linejoin="round" />
  <path class="header__logo-icon--letter" fill="#ffffff" stroke="#000000" d="M80.84 6.85001L155.17 159.74L229.28 41.44C234.31 33.55 236.96 23.58 233.59 14.85C232.43 11.84 228.17 6.85999 221.31 6.85999C203.89 6.85999 203.33 23.75 203.33 23.75C203.33 23.75 201.26 6.85999 183.8 6.85999C178.92 6.85999 173.72 10.93 172.01 14.85C167.87 24.31 173.25 33.83 178.53 41.28C178.53 41.28 189.72 58.87 192.97 63.68C199.82 73.82 203.01 80.49 192.01 100.97" stroke-width="13" stroke-miterlimit="10" stroke-linecap="round" stroke-linejoin="round" />
  <path class="header__logo-icon--heart" fill="red" d="M196.86 70.09C199.67 75.73 207.52 76.17 210.87 70.83L229.29 41.43C234.32 33.54 236.97 23.57 233.6 14.84C232.44 11.83 228.18 6.85001 221.32 6.85001C210.89 6.85001 206.5 12.91 204.66 17.78C204.12 19.2 202.17 19.28 201.54 17.9C199.29 13.02 194.36 6.85001 183.81 6.85001C178.93 6.85001 173.73 10.92 172.02 14.84C167.88 24.3 173.26 33.82 178.54 41.27C178.54 41.27 189.73 58.86 192.98 63.67C194.47 65.91 195.81 67.99 196.86 70.09Z" />
</svg>