<svg width="210" height="47" viewBox="0 0 210 47" xmlns="http://www.w3.org/2000/svg">
<path d="M74.3443 3.54672C72.2787 7.59591 71.623 8.66148 70.5738 9.75984C70.0492 10.3172 69.7541 10.4812 69.164 10.5631C66.6066 10.9074 63.4099 11.9894 59.2623 13.9074C57.8525 14.5631 56.6394 15.0713 56.5902 15.0221C56.541 14.973 56.2459 14.2025 55.9345 13.3336C55.4099 11.8582 55.0656 10.2844 53.8033 3.74344C53.3935 1.62869 53.3279 1.43196 53.1968 1.94016C52.8525 3.35 53.0656 12.3664 53.5082 14.35C53.541 14.5631 53.5246 14.7271 53.459 14.7271C53.3771 14.7271 52.4427 13.9566 51.3607 13.0058C49.4099 11.2844 48.0164 10.4156 46.8525 10.1861C46.3771 10.1041 46.3115 10.1205 46.4591 10.3172C46.5574 10.4484 47.3279 11.3992 48.164 12.432C49 13.4648 50.0492 14.8582 50.4754 15.514C51.3607 16.8582 51.9345 18.2025 51.6722 18.2844C51.2787 18.4156 48.4918 20.0713 46.164 21.5631C44.8033 22.432 43.0984 23.4484 42.3607 23.8418C41.0164 24.5631 39 25.3828 38.5902 25.3828C38.2787 25.3828 37.5902 23.7599 37.1968 22.1041C37.0164 21.3336 36.6394 19.7926 36.3771 18.6615C36.1148 17.5303 35.7213 16.2353 35.5246 15.7926L35.164 14.973L35 15.7926C34.8853 16.3664 34.9017 17.7926 35.0492 20.4156C35.2623 24.514 35.1968 25.9566 34.705 27.3009C34.2459 28.514 34.0656 28.6123 33.2132 28.0713C32.8197 27.8254 30.8853 26.809 28.9017 25.8254C26.9181 24.8418 24.7869 23.7435 24.1804 23.3664L23.0656 22.6779L23.1804 21.6123C23.4099 19.3992 24.2459 17.4156 26.4427 13.9074C27.8033 11.7435 28.7541 9.85821 28.5902 9.69427C28.3607 9.44837 25.6394 12.5303 23.9345 14.973C21.9837 17.7762 20.6886 19.3992 20.5574 19.1861C20.5246 19.1205 20.4099 18.4812 20.3115 17.7599C20.2132 17.0549 19.9509 16.0713 19.7378 15.5959C18.8033 13.5959 16.8689 11.2844 16.082 11.2844C15.9673 11.2844 16.2787 12.0877 16.7705 13.1369C17.9509 15.5631 18.3443 17.1205 18.3771 19.35C18.3935 20.3008 18.3771 21.1369 18.3279 21.1697C18.2787 21.2189 17.7214 21.1041 17.0984 20.9238C16.2459 20.6779 15.2951 20.5631 13.4427 20.514C9.63939 20.3828 7.73776 20.7599 3.45907 22.4648C0.967267 23.4484 0.131202 23.9894 0.131202 24.5795C0.131202 24.973 0.0820214 24.973 1.31153 24.4812C6.27874 22.5467 12.5082 22.6451 18.7705 24.7927C21.2951 25.6615 23.2951 26.5304 25.705 27.8418C27.1148 28.5959 29.5574 30.0386 29.7705 30.2189C29.9017 30.3336 26.4263 31.3009 25.2296 31.4648C23.4918 31.7107 18.9345 31.5632 16.9345 31.2189C14.0164 30.6943 7.85251 28.9566 6.6394 28.3009C6.47546 28.2189 6.29513 28.1697 6.26235 28.2189C6.1312 28.35 8.54103 29.8582 10.2623 30.7107C13.9345 32.514 18.705 33.9074 23.164 34.4812C24.623 34.6779 24.5574 34.5959 24.5574 36.0878C24.5574 37.9566 24.1968 40.0222 23.4099 42.5796C23.0328 43.7763 22.6886 44.891 22.6558 45.0386C22.6066 45.1861 22.9017 44.9238 23.3279 44.4812C24.2787 43.4484 25.3115 41.432 26.1968 38.9074C27.6722 34.7107 27.8033 34.432 28.3771 34.2681C28.6722 34.1861 30.082 33.6287 31.541 33.0222L34.1804 31.9074L36.3771 32.6451C37.5902 33.055 39.7541 33.6615 41.1968 33.9894C48.164 35.6123 48.7377 35.7763 48.6886 36.1205C48.6722 36.3009 48.6066 37.1369 48.541 37.973C48.459 39.35 48.4754 39.4812 48.7213 39.3828C49.1148 39.2353 49.4263 38.5468 49.6394 37.35C50 35.2845 50.0164 35.2681 51.164 35.1369C53.3115 34.891 55.7377 34.1533 60.4426 32.2845L61.3115 31.9238L61.1967 32.7107C61.1312 33.1369 60.8033 34.4484 60.4426 35.6123C60.0984 36.7927 59.8033 37.8582 59.8033 37.9894C59.8033 38.3992 60.9017 37.2189 61.8525 35.7927C62.3279 35.0714 63.3115 33.2681 64.0164 31.7763L65.3279 29.0713L69.082 26.5795C71.1476 25.2189 73.4754 23.7927 74.2459 23.4156L75.6558 22.7107L77.6066 24.1861C81.7705 27.3336 83.9672 28.5304 86.3279 28.9894L87.0492 29.1205L86.4918 28.5468C86.1967 28.2353 84.8525 27.1533 83.4918 26.1369C80.8853 24.1861 79.6885 23.0058 79.0656 21.7763L78.6885 21.0222L80.459 20.0877C81.4262 19.5795 82.7377 18.9402 83.3771 18.6779C84.3607 18.2681 84.5738 18.2353 84.7213 18.432C84.9836 18.7271 86.5246 19.432 88.6066 20.2025C92.6721 21.7107 93 23.2353 90.4426 28.8582C89.9836 29.8746 89.4262 31.2025 89.2131 31.8091C88.8197 32.9074 88.6885 34.3009 88.9508 34.4648C89.0328 34.514 89.7541 33.35 90.5574 31.891C91.918 29.432 93.4918 27.0713 94.1148 26.5631C94.3443 26.3664 94.3771 26.432 94.4754 27.055C94.541 27.4484 94.4918 28.8091 94.3935 30.055C94.2951 31.3009 94.2459 32.6615 94.3115 33.055C94.4262 33.8418 94.7049 34.5632 94.8853 34.5632C95.0328 34.5632 95.459 32.6779 95.9508 29.8091C96.541 26.432 97.3607 24.1861 97.8853 24.4976C97.9836 24.5631 100.033 25.8746 102.426 27.3992C107.377 30.5632 109.639 32.1041 109.639 32.2845C109.639 32.35 108.885 33.2189 107.951 34.2025C106.41 35.8255 105.016 37.6779 105.344 37.6779C105.672 37.6779 107.131 36.5959 108.754 35.1369C109.738 34.2517 110.902 33.3009 111.344 32.9894L112.148 32.4484L112.902 32.8254C113.311 33.0386 114.361 33.4648 115.23 33.8091C116.098 34.1369 117.148 34.6287 117.557 34.891C118.41 35.4648 118.328 35.1533 118.82 39.973C119.213 43.9074 119.656 46.8746 119.82 46.7763C120 46.6615 120.262 44.8419 120.377 42.8419C120.557 40.0222 121.033 37.9566 121.59 37.6123C121.656 37.5632 121.967 38.1861 122.262 38.9894C122.754 40.4156 123.59 41.6123 124.049 41.6123C124.164 41.6123 124.23 41.0058 124.23 39.6779C124.23 37.3337 124.328 37.1205 125.311 37.35C126.197 37.5468 131.574 37.8582 133.557 37.8255L135.098 37.7927L135.885 39.1369C136.311 39.8582 136.869 40.7271 137.115 41.0386C137.852 42.0058 138.836 42.5632 139.295 42.2845C139.475 42.1697 139.426 41.973 138.984 41.2681C138.508 40.4812 137.672 38.5304 137.672 38.1861C137.672 38.1205 138.098 38.1205 138.623 38.1861C139.59 38.3173 140.836 38.2353 144.393 37.7599C147.41 37.35 149.295 37.6451 150.197 38.6451C150.459 38.9402 150.459 38.9894 150.148 39.6287C149.377 41.1041 148.262 42.0058 145.115 43.6615C144.115 44.1697 143.115 44.7435 142.902 44.9238L142.508 45.2353L143.328 45.1205C145.607 44.8255 148.574 43.6779 152.295 41.6943L154.934 40.2845L155.607 40.5304C157.131 41.0878 159.033 41.3501 161.77 41.3501C163.262 41.3664 164.967 41.3009 165.59 41.2353L166.689 41.1041V42.8091C166.689 44.891 166.836 46.0714 167.082 45.9894C167.18 45.9566 167.41 45.6779 167.574 45.3828C167.836 44.9402 167.918 44.3992 167.984 42.7107L168.082 40.5796L169.475 40.2845C171.131 39.9402 171.869 39.6943 175.246 38.2845C179.688 36.4156 181.607 36.0058 184.115 36.3664C184.902 36.4812 185.541 36.6451 185.541 36.7435C185.541 37.1533 183.984 38.9238 181.459 41.3992C179.967 42.8583 178.836 44.0714 178.951 44.0714C179.279 44.0714 181.328 43.0058 182.393 42.2845C182.902 41.9402 184.18 40.973 185.213 40.1533C186.738 38.9402 188.246 37.9566 189.18 37.5468C189.443 37.432 189.295 38.514 188.82 40.3501C188.328 42.2353 188.213 43.3173 188.459 43.4812C188.672 43.6123 189.59 41.973 190.475 39.8582C191.492 37.4976 192.131 36.35 192.738 35.8255C193.147 35.4812 193.623 35.3828 196.541 34.9894C203.623 34.055 205.426 33.6943 207.344 32.7927L208.41 32.3009L207.672 32.2845C207.262 32.2681 205.164 32.4156 203 32.6123C197.984 33.0386 192.328 33.0877 190.197 32.7107C187.672 32.2517 187.672 32.3009 190.246 31.1533C191.492 30.6123 193.754 29.5959 195.279 28.9074C200.475 26.5631 204.361 25.3172 208.082 24.8582L209.885 24.6123L208.984 24.4156C208.492 24.3008 207.164 24.1697 206.033 24.1205C202.902 23.9894 199.754 24.5795 194.984 26.2025C193.902 26.5631 193 26.8254 192.951 26.7927C192.918 26.7435 193.049 26.1205 193.229 25.3828C193.623 23.8746 194.115 22.8418 195.672 20.2189C196.705 18.4648 197.41 17.0385 197.295 16.9238C197.262 16.891 196.869 17.1041 196.443 17.3828C194.508 18.6615 192.82 20.9238 190.131 25.8582C189.197 27.5631 188.443 28.7435 188.246 28.8254C188.066 28.9074 186.918 29.2681 185.705 29.6287C183.361 30.35 181.377 30.6779 180.393 30.514C179.852 30.432 179.754 30.3173 179.049 29.0058C177.688 26.5304 176.213 24.4156 174.639 22.7763C173.328 21.432 171.115 19.5959 171.115 19.8746C171.115 19.9238 171.607 20.6287 172.197 21.4648C174.279 24.3336 175.164 26.3828 175.328 28.6287L175.426 29.973L174.869 29.8582C174.557 29.7763 173.361 29.7271 172.18 29.7435C170.361 29.7435 169.557 29.8582 166.656 30.432C164 30.973 162.902 31.1205 161.607 31.1205H159.934L160.049 30.5795C160.115 30.3009 160.328 29.4648 160.541 28.7435C161.049 26.973 161.213 25.8746 160.967 25.8746C160.59 25.8746 159.951 26.432 159.574 27.0877C159.361 27.4648 158.951 28.4812 158.672 29.35C158.016 31.3173 157.377 32.2681 156.689 32.2681C156.426 32.2681 155.197 32.4812 153.951 32.7435C151.82 33.2025 150.852 33.3336 150.016 33.2681C149.672 33.2517 149.656 33.2353 149.869 32.5304C150 32.1205 150.426 31.1697 150.852 30.3992C151.262 29.6287 151.934 28.3828 152.328 27.6287C152.984 26.432 153.672 24.4484 153.508 24.2845C153.41 24.1697 151.918 25.8254 150.197 27.9238C148.443 30.0713 146.262 32.7107 145.934 33.0714C145.77 33.2517 145.197 32.9074 142.475 30.9238C138.607 28.0877 136.852 26.891 134.59 25.6123C133.672 25.0877 132.918 24.5631 132.918 24.4648C132.918 24.0386 133.951 22.2845 134.689 21.4484C135.131 20.9566 136.279 19.9238 137.229 19.1533C138.18 18.3992 138.934 17.7435 138.902 17.7107C138.754 17.5631 136.672 18.2353 135.77 18.7435C135.197 19.0713 133.803 20.0549 132.639 20.9566C128.508 24.1697 126.738 24.6615 123.475 23.4812L122.803 23.2353L122.934 22.5467C123 22.1697 123.18 21.3828 123.311 20.7926C123.705 19.1861 123.59 17.514 123.098 17.514C122.869 17.514 122.492 18.5959 122.18 20.1369C121.393 24.1369 120.869 24.7435 118.492 24.4812C117.279 24.35 116.377 23.891 115.492 22.9402C114.541 21.9238 113.951 20.7271 112.738 17.4156C112.197 15.9402 111.508 14.2844 111.197 13.7598C110.639 12.809 109.443 11.6123 109.049 11.6123C108.934 11.6123 109.098 12.2517 109.508 13.3664C110.344 15.6779 110.623 16.8582 110.623 18.2189V19.35L109.852 18.6615C107.23 16.35 103.82 15.2844 94.2295 13.7435C92.4754 13.4648 91 13.2025 90.9672 13.1533C90.9344 13.1205 91.0164 12.4976 91.1476 11.7926C91.4262 10.3828 92.2951 8.46476 93.8033 5.89099C94.2951 5.05492 94.8197 4.03852 94.9508 3.62869C95.1967 2.90738 95.1967 2.90738 94.8361 3.00574C93.4262 3.43197 92.3279 4.82541 90.3771 8.64509C87.9344 13.4156 87.0656 14.2353 84.4262 14.2353C83.0984 14.2353 81.5574 13.7271 78.9344 12.3992C77.8361 11.8582 76.459 11.2189 75.8689 11.0221C74.8689 10.6615 74.8033 10.6123 74.8525 10.1861C74.8853 9.94017 75.2295 7.71066 75.6394 5.26803C76.0492 2.80902 76.3607 0.563109 76.3279 0.268027C76.2787 -0.207384 76.0164 0.235239 74.3443 3.54672ZM71.6066 14.6943C71.6066 14.973 70.2295 16.1369 68.4754 17.3336C67.4754 18.0222 66.459 18.8254 66.2295 19.1205L65.8033 19.6779L66.623 19.5631C68.082 19.35 69.3607 18.8582 71.9344 17.5303C75.1803 15.8746 75.9508 15.6451 77.9508 15.7435C78.8033 15.7926 79.5246 15.8746 79.5902 15.9402C79.7541 16.0877 79.0328 16.809 77.9181 17.5959C76.9017 18.3172 72.4263 20.809 69.9672 22.0222C67.0328 23.4812 65.7049 23.3992 61.164 21.4648C58.8197 20.4812 57.8361 20.1697 57.8361 20.4156C57.8361 20.6615 58.6886 21.7107 59.2295 22.1533C59.5082 22.3664 60.164 22.8254 60.7049 23.1533C61.7869 23.8418 62.9181 24.8582 62.9181 25.1369C62.9181 25.3664 60.3771 27.4648 58.7213 28.5959C56.5574 30.0877 54.2951 31.0386 51.9509 31.4484C51.3935 31.5468 50.9017 31.6123 50.8689 31.5795C50.8361 31.5468 50.9345 31.055 51.082 30.4812C51.2951 29.5632 51.3115 29.1533 51.1476 27.4484C50.7869 23.8254 50.9017 23.1533 52.0164 22.0222C52.9836 21.0549 54.4754 20.1861 58.9836 17.891C64.5574 15.0713 66.082 14.5959 69.6066 14.5795C70.7049 14.5631 71.6066 14.6287 71.6066 14.6943ZM97.0984 17.1205C100.115 17.6287 103.508 19.0549 107.213 21.3336C108.148 21.9074 110.016 23.0713 111.361 23.9074C112.721 24.7599 113.836 25.4648 113.869 25.4812C113.902 25.4976 113.672 26.1369 113.361 26.8746C112.705 28.4484 112.951 28.3992 110.459 27.5631C107.984 26.7435 103.131 24.3008 98.4918 21.5304C96.2787 20.2189 93.6066 18.7107 92.5574 18.2025C91.5082 17.6943 90.6394 17.2189 90.6394 17.1533C90.6066 16.8254 95.2295 16.7926 97.0984 17.1205ZM48.0492 26.4484C48.4918 28.1533 48.8197 30.1041 48.8197 31.055V31.9074L47.6558 32.0222C45.5902 32.2353 43.082 31.8746 40.2787 30.9566C38.7377 30.4648 38.1804 30.2189 38.3279 30.0877C38.9672 29.5304 42.0492 27.3828 42.8689 26.9074C44.6722 25.9074 46.705 25.1861 47.5082 25.2845C47.6558 25.3008 47.8525 25.7271 48.0492 26.4484ZM119.639 27.7107C119.639 27.9238 119.41 28.8746 119.115 29.8418L118.59 31.5795L116.984 30.7763C115.197 29.8746 115.082 29.6943 115.738 28.7271C116.344 27.8582 117.393 27.4156 119.033 27.3664C119.557 27.35 119.639 27.3992 119.639 27.7107ZM126.967 27.514C129.23 27.7107 130.82 28.0386 132.229 28.5959C132.836 28.8418 133.344 29.0386 133.361 29.055C133.377 29.0713 133.508 30.0058 133.639 31.1205C133.787 32.2517 133.967 33.4156 134.066 33.7271C134.148 34.0386 134.18 34.3336 134.131 34.3828C134.082 34.432 132.918 34.4812 131.557 34.4648C129.541 34.4648 128.492 34.35 126.033 33.9238C124.361 33.6451 122.82 33.3664 122.607 33.3173L122.213 33.2353L122.311 30.5795C122.361 29.1205 122.459 27.7927 122.508 27.6287C122.607 27.3992 122.836 27.35 123.885 27.35C124.574 27.35 125.951 27.432 126.967 27.514ZM137.77 31.0713C138.213 31.2189 138.934 31.5468 139.377 31.8091C140.393 32.4156 142.754 34.2025 142.754 34.3828C142.754 34.514 141.246 34.7927 139.475 34.9894C138.672 35.0714 136.77 34.8582 136.557 34.6615C136.492 34.5959 136.869 30.7927 136.934 30.7927C136.951 30.7927 137.328 30.9238 137.77 31.0713ZM173.393 33.4976C174.803 33.7107 176.279 33.9074 176.688 33.9402L177.426 33.9894L176.541 34.514C176.049 34.7927 174.279 35.4976 172.607 36.055C170.934 36.6123 169.361 37.1697 169.098 37.3009C168.672 37.514 168.639 37.4976 168.492 37.0878C168.393 36.8418 168.246 36.3173 168.148 35.891C167.951 34.9894 167.377 33.7435 167.164 33.7435C166.82 33.7435 167.213 33.4156 167.721 33.2681C168.656 32.9894 170.77 33.0877 173.393 33.4976ZM162.033 34.7107C162.934 35.1205 163.77 35.8746 164.459 36.9402C165.443 38.4156 165.508 38.3337 163.393 38.3337C162.361 38.3337 161.262 38.2845 160.951 38.2353C160.361 38.1369 160.361 38.1369 159.984 36.6615C159.492 34.7927 159.607 34.3992 160.656 34.3992C161.049 34.3992 161.656 34.5468 162.033 34.7107ZM156.918 35.3009C156.967 35.432 156.934 35.7435 156.852 35.973C156.754 36.2025 156.689 36.5632 156.689 36.7927C156.689 37.3337 156.164 37.3173 154.426 36.7271C153.229 36.3173 153.098 36.2353 153.328 36.0386C153.59 35.8255 156.016 35.0877 156.541 35.0714C156.689 35.055 156.852 35.1697 156.918 35.3009Z"/>
<path d="M140.29 26.2754C141.1 26.8905 141.93 27.4867 142.462 28.396C142.515 28.4864 142.567 28.5752 142.62 28.6656C142.621 28.6669 142.621 28.6692 142.623 28.6706C143.492 29.8769 144.143 31.2221 144.912 32.5115C145.7 33.8292 146.935 34.4013 148.395 34.3908C149.635 34.3826 150.874 34.1783 152.114 34.0616C152.119 34.0229 152.124 33.9854 152.13 33.9467C151.354 33.409 150.546 32.9115 149.812 32.321C147.918 30.7972 146.246 29.0378 144.901 27.0088C144.297 26.0967 143.759 25.1405 143.295 24.1496C142.825 23.1472 142.493 22.1023 142.087 21.0752C141.976 20.7954 141.869 20.4608 141.461 20.5031C140.279 20.6228 139.101 20.7644 137.991 21.2237C137.377 21.477 136.769 21.7192 136.331 22.2615C136.33 22.2623 136.33 22.2634 136.329 22.2644C136.227 22.4485 136.177 22.6564 136.212 22.8633C136.243 23.0415 136.333 23.2028 136.443 23.3477C136.444 23.3492 136.445 23.3493 136.446 23.3505C136.509 23.4221 136.578 23.4882 136.65 23.5472C137.067 23.8895 137.487 24.2313 137.91 24.566C137.912 24.5675 137.913 24.5678 137.914 24.5692C137.947 24.5908 137.979 24.6134 138.012 24.6351C138.78 25.1501 139.543 25.6785 140.265 26.2564C140.273 26.2626 140.282 26.2688 140.29 26.2754Z" fill="#FF0000"/>
<path d="M144.28 14.6329C144.334 14.6757 144.395 14.717 144.46 14.7381C145.025 14.9239 145.598 15.0874 146.156 15.2918C146.661 15.4778 147.154 15.6976 147.645 15.9201C147.987 16.0766 148.315 16.2642 148.694 16.461C148.71 16.313 148.729 16.2465 148.722 16.1841C148.53 14.5146 148.22 12.8474 148.222 11.1616C148.222 10.7152 148.255 10.2379 148.524 9.88197C148.867 9.4296 149.515 9.30264 150.069 9.42587C150.606 9.54533 150.99 10.0186 151.516 10.12C152.047 10.2223 152.624 9.90665 152.978 9.53501C153.455 9.03537 153.732 8.37872 154.156 7.83406C154.704 7.13203 155.513 6.6547 156.379 6.46401C157.48 6.22142 158.065 6.57642 159.065 6.88296C159.456 7.00318 159.892 7.02793 160.269 6.86803C161.876 6.18757 160.252 5.07457 159.531 4.60329C158.32 3.81109 156.804 3.52827 155.377 3.6778C153.465 3.87813 151.689 4.77521 150.104 5.86272C148.518 6.95021 147.079 8.23757 145.514 9.354C144.928 9.77172 144.317 10.173 143.857 10.726C142.893 11.8843 143.109 13.6848 144.28 14.6329Z" fill="#FF0000"/>
<path d="M157.795 7.96423C156.847 7.76195 155.901 7.89299 155.186 8.53407C154.373 9.26397 154.092 9.4604 154.793 10.4503C155.042 10.7995 155.345 11.1101 155.623 11.4381C155.61 11.4583 155.595 11.4784 155.581 11.4984C154.956 11.2062 154.331 10.914 153.676 10.6098C153.482 10.7613 153.244 10.9496 152.959 11.1729C154.209 11.8101 155.276 12.5972 156.639 13.1214C156.569 12.7179 156.537 12.4477 156.475 12.184C156.292 11.3958 156.339 10.6612 157.032 10.1313C157.343 9.89291 157.702 9.67954 158.073 9.56707C158.835 9.33676 159.62 9.18122 160.45 8.98227C160.325 8.88059 160.218 8.78053 160.1 8.69813C159.409 8.21659 158.585 8.13381 157.795 7.96423Z" fill="#FF0000"/>
<path d="M164.851 10.4849C164.849 10.4833 164.849 10.4821 164.846 10.4816C164.457 10.3951 164.056 10.3792 163.658 10.2966C163.189 10.1993 162.731 10.0617 162.259 9.98063C160.944 9.75468 159.274 9.89253 158.072 10.512C157.744 10.6808 157.447 10.9347 157.297 11.2713C157.101 11.7093 157.183 12.2408 157.443 12.6442C157.989 13.4925 159.128 13.7583 160.07 13.8141C160.355 13.831 160.665 13.8145 160.889 13.6368C161.142 13.4362 161.215 13.0538 161.085 12.7584C160.955 12.4629 160.647 12.2644 160.325 12.232C159.8 12.1789 159.46 12.5117 159.107 12.8384C159.073 12.6508 159.141 12.4544 159.258 12.3036C159.375 12.1527 159.536 12.0416 159.703 11.9485C160.142 11.7025 160.642 11.5648 161.146 11.551C161.493 11.5413 161.867 11.601 162.121 11.838C162.312 12.0158 162.414 12.2844 162.389 12.544C162.359 12.8686 162.087 13.1598 161.892 13.3994C161.891 13.4013 161.891 13.4023 161.89 13.4034C161.853 13.551 161.958 13.6019 162.104 13.6087C162.105 13.6089 162.107 13.6083 162.11 13.608C162.111 13.6093 162.113 13.6074 162.114 13.6076C162.73 13.5177 163.335 13.3622 163.943 13.2332C164.348 13.1475 165.305 13.1527 165.056 12.474C165.01 12.3456 164.929 12.232 164.867 12.1105C164.738 11.8599 164.685 11.5723 164.708 11.2917C164.715 11.1987 164.78 11.0439 164.831 10.8914C164.887 10.7255 164.925 10.5619 164.851 10.4849Z" fill="#FF0000"/>
<path d="M152.005 18.4848C151.856 18.8177 151.747 19.1163 152.084 19.4707C152.638 20.0545 153.126 20.7035 153.613 21.3486C153.945 21.7894 154.025 21.7817 154.478 21.4663C155.188 20.9723 155.926 20.511 156.683 20.0927C157.596 19.5895 158.562 19.181 159.466 18.6636C160.194 18.2489 160.871 17.7422 161.558 17.2597C162.67 16.4768 163.658 15.5588 164.466 14.4609C164.648 14.2148 164.708 13.9049 164.8 13.6187C164.726 13.8517 163.346 14.0986 163.105 14.1558C162.494 14.3005 161.873 14.3977 161.248 14.4491C159.995 14.552 158.727 14.4702 157.497 14.2149C154.925 13.6814 153.055 12.4229 151.12 10.759C150.703 10.4001 149.92 10.4543 149.638 10.8707C149.353 11.294 149.188 11.7704 149.24 12.2905C149.309 12.9825 149.397 13.6711 149.476 14.3607C149.576 15.2587 149.672 16.1578 149.776 17.0555C149.786 17.1338 149.809 17.2309 149.863 17.2815C150.32 17.7077 150.784 18.1256 151.29 18.5861C152.143 16.7891 151.654 15.1295 151.023 13.4595C151.483 13.9164 151.901 14.3815 152.28 14.8768C152.8 15.5582 152.928 16.3329 152.637 17.1386C152.469 17.6023 152.206 18.0317 152.005 18.4848ZM150.951 11.8482C151.196 12.0142 151.474 12.1476 151.679 12.3535C152.77 13.4442 153.947 14.3949 155.334 15.1068C156.58 15.7479 157.893 16.0718 159.259 16.2262C159.829 16.2908 160.411 16.256 161.07 16.267C160.602 16.9396 159.941 17.1569 159.33 17.2496C158.495 17.3774 157.584 17.4509 156.781 17.2466C155.42 16.9007 154.192 16.2507 153.347 14.9985C152.618 13.9192 151.748 12.9349 150.951 11.8482Z" fill="#FF0000"/>
<path d="M155.226 22.6134C155.236 22.6087 155.246 22.6039 155.256 22.5988C155.473 22.4867 155.659 22.2793 155.851 22.1298C156.579 21.5624 157.379 21.0208 158.233 20.6629C158.985 20.3477 159.857 20.2682 160.655 20.0636C162.372 19.6231 164.092 18.9613 165.374 17.6931C166.293 16.7824 166.925 15.6207 167.438 14.4318C167.703 13.8164 167.944 13.1601 167.88 12.4931C167.82 11.8653 166.739 10.338 165.977 10.9534C165.487 11.3485 165.918 12.4581 165.841 12.9839C165.692 14.0228 165.213 15.0087 164.552 15.8185C163.509 17.1 162.063 17.9865 160.599 18.7536C159.497 19.331 158.364 19.8554 157.299 20.5011C156.378 21.0597 155.201 21.6508 154.819 22.7367C154.841 22.6788 155.164 22.6424 155.226 22.6134Z" fill="#FF0000"/>
<path d="M155.673 23.7586C156.906 24.8004 158.197 25.7693 159.495 26.7334C159.924 27.0517 160.415 27.3326 160.926 27.4889C161.416 27.6389 161.924 27.6747 162.412 27.5193C163.091 27.303 163.61 26.7521 164.018 26.1678C164.667 25.2383 165.105 24.1667 165.313 23.0534C165.462 22.2578 165.751 20.5157 165.185 19.8201C164.934 19.5127 164.787 19.7288 164.418 19.8929C163.042 20.506 161.529 20.7057 160.068 21.0235C159.458 21.1563 154.569 22.8304 155.673 23.7586Z" fill="#FF0000"/>
<path d="M147.873 19.4518C146.96 18.8076 145.972 18.2754 144.963 17.7999C144.141 17.4126 143.302 17.0613 142.465 16.7079C141.666 16.371 140.761 16.0821 140.024 15.6249C140.393 15.3393 140.703 15.2556 141.175 15.201C142.483 15.0495 143.766 15.3393 144.985 15.7934C146.269 16.2715 147.455 16.9861 148.535 17.8233C149.045 18.2182 149.534 18.6366 150.007 19.073C153.86 23.1444 157.563 27.0281 162.822 29.2136C162.936 29.261 163.028 29.3261 163.101 29.4054C163.71 30.063 163.015 31.6935 162.575 32.2082C161.571 33.3812 159.485 33.8717 157.88 34.3159C157.288 34.4797 155.835 34.4846 153.746 33.4C152.58 32.7946 151.493 32.0651 150.548 31.1503C150.094 30.7107 149.638 30.31 149.213 29.833C148.767 29.3328 148.336 28.8202 147.919 28.2958C147.093 27.2577 146.325 26.1738 145.62 25.0507C144.929 23.95 144.298 22.8117 143.731 21.6421L143.707 21.5938C143.135 20.4138 142.542 19.1907 142.22 17.9117C142.219 17.9069 142.218 17.9021 142.217 17.8976C142.212 17.8677 142.218 17.8305 142.222 17.7649C142.381 17.9625 142.871 18.0572 143.096 18.1443C144.347 18.6276 145.571 19.1369 146.754 19.7764C147.368 20.1081 147.969 20.4635 148.556 20.8413C148.85 21.03 149.139 21.2246 149.425 21.4248C149.519 21.4907 150.166 22.0472 150.238 22.0161C150.374 21.9572 150.234 21.8541 150.173 21.7708C149.849 21.3287 149.585 20.8928 149.183 20.5149C148.773 20.1294 148.333 19.7764 147.873 19.4518Z" fill="#FF0000"/>
<path d="M171.63 20.6504C171.085 20.8425 170.679 21.2907 170.295 21.7223C169.759 22.3258 164.349 28.8071 163.972 28.5065C165.171 29.4707 165.01 30.6492 164.298 31.8847C164.405 31.8938 164.446 31.905 164.482 31.8988C166.148 31.6242 167.544 30.724 169.003 29.9624C169.779 29.556 170.562 29.1568 171.366 28.8096C172.994 28.1076 174.71 27.7481 176.475 27.6061C177.107 27.5558 177.32 27.2404 177.112 26.6369C176.949 26.1666 176.728 25.7171 176.539 25.2553C176.133 24.2578 175.456 23.4441 174.787 22.6204C174.154 21.8427 172.759 20.2517 171.63 20.6504Z" fill="#FF0000"/>
<path d="M162.26 8.32485C163.001 8.51564 164.043 8.66896 164.185 8.66596C165.167 8.64637 166.066 8.27403 167.062 8.33416C168.223 8.40432 169.346 8.77296 170.207 9.58037C170.967 10.2953 171.705 11.0371 172.449 11.771C172.521 11.8423 172.557 11.9477 172.677 12.1478C172.297 11.9885 172.015 11.9105 171.777 11.7613C171.046 11.3042 170.362 10.7636 169.6 10.3679C169.131 10.1246 168.57 10.1073 168.061 10.0032C168.054 10.2724 168.185 10.4065 168.325 10.635C168.487 10.9001 168.623 11.1823 168.728 11.4749C168.938 12.0601 169.029 12.6885 168.988 13.3093C168.943 13.9699 168.747 14.6185 168.426 15.1974C168.09 15.8047 167.59 16.2954 167.195 16.8631C166.893 17.297 166.587 17.7289 166.326 18.1862C165.854 19.0072 165.982 19.8792 166.175 20.7469C166.211 20.9051 166.267 21.0602 166.316 21.2269C166.697 20.61 167.008 20.011 167.493 19.4597C167.977 18.9093 168.518 18.4118 169.041 17.8989C169.902 17.0538 170.743 16.1254 171.121 14.9796C171.27 14.5285 171.479 14.021 172.057 14.1167C172.103 14.6532 172.138 15.1838 172.02 15.7146C172.018 15.7354 172.015 15.7566 172.011 15.7771C171.867 17.0497 170.552 17.7898 169.708 18.5869C168.759 19.4825 167.898 20.4761 167.198 21.5789C167.1 21.7331 167.005 21.8893 166.913 22.0477C166.534 22.7048 166.216 23.3943 165.929 24.0957C165.784 24.4541 165.644 24.8156 165.51 25.1785C165.398 25.4828 165.143 25.9257 165.143 26.2433C165.249 26.2457 165.374 26.062 165.438 25.9757C165.849 25.4136 166.225 24.8198 166.674 24.2892C167.688 23.0882 168.711 21.8952 169.736 20.7031C170.743 19.5297 171.933 18.5603 173.043 17.4884C174.182 16.3866 175.229 15.0979 175.595 13.5558C175.961 12.0136 175.47 10.1798 174.108 9.37159C172.241 8.26454 170.128 7.30924 168.047 6.69319C165.902 6.05814 162.676 5.38677 161.512 7.95554C161.459 8.07459 161.802 8.20682 162.26 8.32485Z" fill="#FF0000"/>
<path d="M175.548 11.135C175.546 11.1215 175.544 11.1086 175.543 11.0952C175.418 10.5324 175.17 10.0132 174.715 9.63644C174.546 9.49644 174.362 9.381 174.174 9.26136C174.126 9.2407 174.079 9.22064 174.028 9.20185C174.011 9.196 173.995 9.18916 173.979 9.18323C174.238 9.31795 174.487 9.47124 174.71 9.65693C175.174 10.0405 175.426 10.5607 175.548 11.135Z" fill="#FF0000"/>
</svg>
